<?xml version="1.0" encoding="UTF-8"?>
<svg id="Layer_2" data-name="Layer 2" xmlns="http://www.w3.org/2000/svg" viewBox="0 0 248.58 247.27">
  <defs>
    <style>
      .cls-1 {
        fill: none;
        stroke: #000;
        stroke-miterlimit: 10;
        stroke-width: 5px;
      }
    </style>
  </defs>
  <g id="Layer_1-2" data-name="Layer 1">
    <g>
      <g>
        <path class="cls-1" d="M246.08,123.77c0,4.13-.21,8.21-.61,12.23-13.76,9.95-28.46,18.07-43.76,24.34,2.45-11.55,3.77-23.86,3.77-36.62,0-2.27-.04-4.53-.13-6.78,13.16-4.73,25.98-10.6,38.26-17.61,1.62,7.89,2.47,16.07,2.47,24.44Z"/>
        <path class="cls-1" d="M125.08,244.77c43.43,0,81.51-22.87,102.84-57.23"/>
        <path class="cls-1" d="M125.08,2.77c.34,0,.69,0,1.03.01.01-.01.02-.01.03,0"/>
        <path class="cls-1" d="M205.47,33.34c-8.01,1.57-16.06,2.91-24.15,4.03C167.39,16.86,148.53,3.87,127.64,2.8c29.86.62,57.05,12.05,77.83,30.54Z"/>
        <path class="cls-1" d="M231.65,66.42c-10.63,4.05-21.48,7.49-32.47,10.34-4.18-14.88-10.29-28.25-17.86-39.39,8.09-1.12,16.14-2.46,24.15-4.03,10.54,9.37,19.43,20.56,26.18,33.08Z"/>
        <path class="cls-1" d="M243.61,99.33c-12.28,7.01-25.1,12.88-38.26,17.61-.52-14.18-2.67-27.71-6.17-40.18,10.99-2.85,21.84-6.29,32.47-10.34,5.5,10.18,9.57,21.24,11.96,32.91Z"/>
        <path class="cls-1" d="M124.82,244.72c21.7,0,41.39-12.84,55.89-33.75"/>
        <path class="cls-1" d="M124.82,2.72c.31,0,.62,0,.92.02.01-.01.02-.01.03,0,.63,0,1.25.02,1.87.06"/>
        <path class="cls-1" d="M164.87,127.74c.01-1.35.02-2.7.02-4.06,0-13.93-.78-27.32-2.23-39.77,12.3-1.66,24.5-4.05,36.52-7.15,3.5,12.47,5.65,26,6.17,40.18-13.2,4.74-26.75,8.35-40.48,10.8Z"/>
        <path class="cls-1" d="M181.32,37.37c-9.14,1.26-18.33,2.24-27.53,2.93-7.02-22.1-16.78-36.26-27.65-37.52.5,0,1,0,1.5.02,20.89,1.07,39.75,14.06,53.68,34.57Z"/>
        <path class="cls-1" d="M124.55,244.68c9.46,0,18.16-9.76,25.03-26.11"/>
        <path class="cls-1" d="M126.14,2.78s-.02-.01-.03,0c-.11-.02-.23-.04-.34-.04-.01-.01-.02-.01-.03,0-.39-.04-.79-.06-1.19-.06"/>
        <path class="cls-1" d="M124.29,220.85v23.78"/>
        <path class="cls-1" d="M124.29,2.63v38.93"/>
        <path class="cls-1" d="M99.57,219.82c6.39,14.64,14.28,23.68,22.86,24.67h.03c.09.02.17.03.26.03.43.05.86.07,1.3.07"/>
        <path class="cls-1" d="M94.58,40.88c7.36-23.57,17.83-38.29,29.44-38.29"/>
        <path class="cls-1" d="M123.76,244.54c-.35,0-.7,0-1.04-.02-.52,0-1.04-.02-1.56-.05-19.4-.91-37.06-12.1-50.66-30.06"/>
        <path class="cls-1" d="M66.45,38.39C81.07,16.25,101.35,2.54,123.76,2.54"/>
        <path class="cls-1" d="M123.5,244.5c-.36,0-.72,0-1.07-.01-.43,0-.85,0-1.27-.02-38.2-.72-72.07-19.14-93.73-47.41"/>
        <path class="cls-1" d="M47.71,163.95c-15.18-5.39-29.86-12.55-43.73-21.47-.97-6.18-1.48-12.52-1.48-18.98,0-6.8.56-13.46,1.64-19.95,12.56,6.57,25.62,11.99,38.99,16.26-.03,1.24-.04,2.48-.04,3.73,0,14.17,1.62,27.77,4.62,40.41Z"/>
        <path class="cls-1" d="M48.81,78.72c-3.4,12.77-5.39,26.61-5.68,41.09-13.37-4.27-26.43-9.69-38.99-16.26,2.02-12.22,5.88-23.83,11.29-34.52,10.94,3.86,22.09,7.09,33.38,9.69Z"/>
        <path class="cls-1" d="M41.37,34.65C62.94,14.69,91.79,2.5,123.5,2.5"/>
      </g>
      <g>
        <path class="cls-1" d="M66.45,38.39c-7.55,11.44-13.6,25.12-17.64,40.33-11.29-2.6-22.44-5.83-33.38-9.69,6.55-12.98,15.37-24.61,25.94-34.38,8.32,1.5,16.68,2.74,25.08,3.74Z"/>
        <path class="cls-1" d="M94.58,40.88c-3.9,12.5-6.93,27.47-8.79,44.06-12.43-1.33-24.79-3.41-36.98-6.22,4.04-15.21,10.09-28.89,17.64-40.33,9.35,1.13,18.73,1.96,28.13,2.49Z"/>
        <path class="cls-1" d="M162.66,83.91c-12.72,1.72-25.54,2.67-38.37,2.84v-45.19c9.84-.09,19.68-.51,29.5-1.26,3.91,12.34,6.97,27.17,8.87,43.61Z"/>
        <path class="cls-1" d="M124.29,41.56v45.19c-12.86.18-25.72-.43-38.5-1.81,1.86-16.59,4.89-31.56,8.79-44.06,9.89.55,19.8.78,29.71.68Z"/>
        <path class="cls-1" d="M199.18,76.76c-12.02,3.1-24.22,5.49-36.52,7.15-1.9-16.44-4.96-31.27-8.87-43.61,9.2-.69,18.39-1.67,27.53-2.93,7.57,11.14,13.68,24.51,17.86,39.39Z"/>
        <path class="cls-1" d="M83.69,123.59c0,1.86.01,3.7.04,5.54-13.74-1.98-27.32-5.08-40.6-9.32.29-14.48,2.28-28.32,5.68-41.09,12.19,2.81,24.55,4.89,36.98,6.22-1.36,12.13-2.1,25.13-2.1,38.65Z"/>
        <path class="cls-1" d="M124.29,86.75v44.94c-13.56.23-27.13-.63-40.56-2.56-.03-1.84-.04-3.68-.04-5.54,0-13.52.74-26.52,2.1-38.65,12.78,1.38,25.64,1.99,38.5,1.81Z"/>
        <path class="cls-1" d="M164.89,123.68c0,1.36-.01,2.71-.02,4.06-13.4,2.41-26.98,3.73-40.58,3.95v-44.94c12.83-.17,25.65-1.12,38.37-2.84,1.45,12.45,2.23,25.84,2.23,39.77Z"/>
        <path class="cls-1" d="M70.5,214.41c-14.82-3.96-29.29-9.74-43.07-17.35-12-15.62-20.25-34.26-23.45-54.58,13.87,8.92,28.55,16.08,43.73,21.47,4.63,19.65,12.56,36.97,22.79,50.46Z"/>
        <path class="cls-1" d="M164.87,127.74c-.18,15.84-1.36,30.91-3.38,44.64-12.28,2.41-24.73,3.73-37.2,3.97v-44.66c13.6-.22,27.18-1.54,40.58-3.95Z"/>
        <path class="cls-1" d="M87.33,173.92c-13.43-2.05-26.7-5.37-39.62-9.97-3-12.64-4.62-26.24-4.62-40.41,0-1.25.01-2.49.04-3.73,13.28,4.24,26.86,7.34,40.6,9.32.24,15.93,1.5,31.05,3.6,44.79Z"/>
        <path class="cls-1" d="M124.29,131.69v44.66c-12.35.25-24.72-.56-36.96-2.43-2.1-13.74-3.36-28.86-3.6-44.79,13.43,1.93,27,2.79,40.56,2.56Z"/>
        <path class="cls-1" d="M205.48,123.72c0,12.76-1.32,25.07-3.77,36.62-13.05,5.35-26.53,9.37-40.22,12.04,2.02-13.73,3.2-28.8,3.38-44.64,13.73-2.45,27.28-6.06,40.48-10.8.09,2.25.13,4.51.13,6.78Z"/>
        <path class="cls-1" d="M99.57,219.82c-9.78-1.05-19.5-2.85-29.07-5.41-10.23-13.49-18.16-30.81-22.79-50.46,12.92,4.6,26.19,7.92,39.62,9.97,2.78,18.16,7,33.91,12.24,45.9Z"/>
        <path class="cls-1" d="M124.29,176.35v44.5c-8.25.19-16.5-.15-24.72-1.03-5.24-11.99-9.46-27.74-12.24-45.9,12.24,1.87,24.61,2.68,36.96,2.43Z"/>
        <path class="cls-1" d="M161.49,172.38c-2.67,18.18-6.78,34.01-11.9,46.19h-.01c-8.38,1.33-16.83,2.08-25.29,2.28v-44.5c12.47-.24,24.92-1.56,37.2-3.97Z"/>
        <path class="cls-1" d="M201.71,160.34c-4.11,19.48-11.42,36.82-21,50.63-10.19,3.42-20.6,5.96-31.12,7.6,5.12-12.18,9.23-28.01,11.9-46.19,13.69-2.67,27.17-6.69,40.22-12.04Z"/>
        <path class="cls-1" d="M245.47,136c-1.89,18.78-8.06,36.29-17.55,51.54-14.85,10.11-30.74,17.92-47.21,23.43,9.58-13.81,16.89-31.15,21-50.63,15.3-6.27,30-14.39,43.76-24.34Z"/>
      </g>
    </g>
  </g>
</svg>